<svg xmlns="http://www.w3.org/2000/svg" xmlns:svg="http://www.w3.org/2000/svg" id="svg8" width="97mm" height="70mm" version="1.1" viewBox="0 0 97 70"><metadata id="metadata5"/><g id="layer1" transform="translate(-33.591893,-21.87063)"><rect style="fill:#fff;fill-opacity:1;stroke:#000;stroke-width:.22203133;stroke-miterlimit:4;stroke-dasharray:none;stroke-opacity:1" id="rect4731-6" width="32.516" height="10.533" x="67.046" y="34.887"/><rect style="fill:#fff;fill-opacity:1;stroke:#000;stroke-width:.22203133;stroke-miterlimit:4;stroke-dasharray:none;stroke-opacity:1" id="rect4731" width="32.516" height="10.533" x="67.447" y="54.966"/><text style="font-style:normal;font-weight:400;font-size:10.58333302px;line-height:1.25;font-family:sans-serif;letter-spacing:0;word-spacing:0;fill:#000;fill-opacity:1;stroke:none;stroke-width:.26458332" id="floorplan.hours" x="67.362" y="64.224" xml:space="preserve"><tspan id="tspan4511" x="67.362" y="64.224" style="stroke-width:.26458332">00</tspan></text><text style="font-style:normal;font-weight:400;font-size:10.58333302px;line-height:1.25;font-family:sans-serif;letter-spacing:0;word-spacing:0;fill:#000;fill-opacity:1;stroke:none;stroke-width:.26458332" id="floorplan.minutes" x="86.325" y="64.289" xml:space="preserve"><tspan id="tspan4511-8" x="86.325" y="64.289" style="stroke-width:.26458332">00</tspan></text><text style="font-style:normal;font-weight:400;font-size:10.58333302px;line-height:1.25;font-family:sans-serif;letter-spacing:0;word-spacing:0;fill:#000;fill-opacity:1;stroke:none;stroke-width:.26458332" id="sensor.alarm_time_hours-8-2" x="81.285" y="63.157" xml:space="preserve"><tspan id="tspan4511-8-2" x="81.285" y="63.157" style="stroke-width:.26458332">:</tspan></text><path id="input_number.alarm_time_hours_up" d="m 77.470026,53.735563 -0.03651,-0.03794 -2.758391,-2.827303 c -0.0933,-0.09575 -0.233245,-0.155366 -0.38942,-0.155366 -0.156173,0 -0.296121,0.06142 -0.389419,0.155366 l -2.756362,2.821883 -0.04665,0.04697 c -0.03448,0.04517 -0.05476,0.09936 -0.05476,0.157173 0,0.157172 0.150089,0.28544 0.336686,0.28544 v 0 h 5.816958 v 0 c 0.186597,0 0.336686,-0.128268 0.336686,-0.28544 0,-0.05962 -0.02231,-0.115622 -0.05882,-0.160787 z" style="stroke-width:.019142"/><path id="input_number.alarm_time_hours_down" d="m 71.16415,67.063717 0.03651,0.03794 2.758391,2.827303 c 0.0933,0.09575 0.233245,0.155366 0.38942,0.155366 0.156173,0 0.296121,-0.06142 0.389419,-0.155366 l 2.756362,-2.821883 0.04665,-0.04697 c 0.03448,-0.04517 0.05476,-0.09936 0.05476,-0.157173 0,-0.157172 -0.150089,-0.28544 -0.336686,-0.28544 v 0 h -5.816958 v 0 c -0.186597,0 -0.336686,0.128268 -0.336686,0.28544 0,0.05962 0.02231,0.115622 0.05882,0.160787 z" style="stroke-width:.019142"/><path id="input_number.alarm_time_minutes_up" d="m 96.112076,53.735565 -0.03651,-0.03794 -2.758391,-2.827303 c -0.0933,-0.09575 -0.233245,-0.155366 -0.38942,-0.155366 -0.156173,0 -0.296121,0.06142 -0.389419,0.155366 l -2.756362,2.821883 -0.04665,0.04697 c -0.03448,0.04517 -0.05476,0.09936 -0.05476,0.157173 0,0.157172 0.150089,0.28544 0.336686,0.28544 v 0 h 5.816958 v 0 c 0.186597,0 0.336686,-0.128268 0.336686,-0.28544 0,-0.05962 -0.02231,-0.115622 -0.05882,-0.160787 z" style="stroke-width:.019142"/><path id="input_number.alarm_time_minutes_down" d="m 90.140287,67.197352 0.03651,0.03794 2.758391,2.827303 c 0.0933,0.09575 0.233245,0.155366 0.38942,0.155366 0.156173,0 0.296121,-0.06142 0.389419,-0.155366 l 2.756362,-2.821883 0.04665,-0.04697 c 0.03448,-0.04517 0.05476,-0.09936 0.05476,-0.157173 0,-0.157172 -0.150089,-0.28544 -0.336686,-0.28544 v 0 h -5.816958 v 0 c -0.186597,0 -0.336686,0.128268 -0.336686,0.28544 0,0.05962 0.02231,0.115622 0.05882,0.160787 z" style="stroke-width:.019142"/><g id="save_alarm_time_button" transform="translate(33.817705,-28.62403)"><rect id="rect4595" width="27.796" height="10.557" x="35.708" y="100.796" style="fill:#000;fill-opacity:1;stroke:none;stroke-width:.30110022;stroke-miterlimit:4;stroke-dasharray:none;stroke-opacity:1"/><text id="text4688" x="43.976" y="107.658" xml:space="preserve" style="font-style:normal;font-weight:400;font-size:4.93888903px;line-height:1.25;font-family:sans-serif;letter-spacing:0;word-spacing:0;fill:#fff;fill-opacity:1;stroke:#000;stroke-width:.26499999;stroke-miterlimit:4;stroke-dasharray:none;stroke-opacity:1"><tspan style="font-size:4.93888903px;fill:#fff;fill-opacity:1;stroke:#000;stroke-width:.26499999;stroke-miterlimit:4;stroke-dasharray:none;stroke-opacity:1" id="tspan4686" x="43.976" y="107.658">Save</tspan></text></g><text style="font-style:normal;font-weight:400;font-size:10.58333302px;line-height:1.25;font-family:sans-serif;letter-spacing:0;word-spacing:0;fill:#000;fill-opacity:1;stroke:none;stroke-width:.26458332" id="input_datetime.alarm_time" x="67.268" y="44.029" xml:space="preserve"><tspan id="tspan4748" x="67.268" y="44.029" style="stroke-width:.26458332">00:00</tspan></text><text style="font-style:normal;font-weight:400;font-size:4.93888903px;line-height:1.25;font-family:sans-serif;letter-spacing:0;word-spacing:0;fill:#000;fill-opacity:1;stroke:none;stroke-width:.26458332" id="text4769" x="76.221" y="33.873" xml:space="preserve"><tspan id="tspan4767" x="76.221" y="33.873" style="font-size:4.93888903px;stroke-width:.26458332">Active</tspan></text><text style="font-style:normal;font-weight:400;font-size:4.93888903px;line-height:1.25;font-family:sans-serif;letter-spacing:0;word-spacing:0;fill:#000;fill-opacity:1;stroke:none;stroke-width:.26458332" id="text4769-7" x="79.124" y="52.951" xml:space="preserve"><tspan id="tspan4767-6" x="79.124" y="52.951" style="font-size:4.93888903px;stroke-width:.26458332">Edit</tspan></text></g></svg>