<svg xmlns="http://www.w3.org/2000/svg" xmlns:osb="http://www.openswatchbook.org/uri/2009/osb" xmlns:svg="http://www.w3.org/2000/svg" xmlns:xlink="http://www.w3.org/1999/xlink" id="svg6099" width="1100" height="800" version="1.1" viewBox="0 0 1100 800"><defs id="defs6093"><linearGradient id="linearGradient12191"><stop style="stop-color:#000;stop-opacity:1" id="stop12187" offset="0"/><stop style="stop-color:#000;stop-opacity:0" id="stop12189" offset="1"/></linearGradient><linearGradient id="linearGradient9258"><stop style="stop-color:#000;stop-opacity:1" id="stop9254" offset="0"/><stop style="stop-color:#000;stop-opacity:0" id="stop9256" offset="1"/></linearGradient><linearGradient id="linearGradient9236" osb:paint="solid"><stop style="stop-color:#000;stop-opacity:1" id="stop9234" offset="0"/></linearGradient><linearGradient id="linearGradient9183" osb:paint="solid"><stop style="stop-color:#000;stop-opacity:1" id="stop9181" offset="0"/></linearGradient><linearGradient id="linearGradient8229" osb:paint="solid"><stop style="stop-color:#003838;stop-opacity:1" id="stop8227" offset="0"/></linearGradient><linearGradient id="linearGradient8117" osb:paint="solid"><stop style="stop-color:#000;stop-opacity:1" id="stop8115" offset="0"/></linearGradient><linearGradient id="linearGradient9262" x1="-.822" x2="180.822" y1="160.333" y2="160.333" gradientTransform="matrix(0.88888888,0,0,1.0666668,10,4.3111073)" gradientUnits="userSpaceOnUse" xlink:href="#linearGradient9258"/><linearGradient id="linearGradient12193" x1="480" x2="480" y1="585.333" y2="475.333" gradientTransform="matrix(0.69073766,0,0,1.0166644,-61.090922,184.58251)" gradientUnits="userSpaceOnUse" xlink:href="#linearGradient12191"/><linearGradient id="linearGradient12193-4" x1="480" x2="480" y1="585.333" y2="475.333" gradientTransform="matrix(0.69073766,0,0,1.0166644,43.909073,185.41232)" gradientUnits="userSpaceOnUse" xlink:href="#linearGradient12191"/><linearGradient id="linearGradient13518" x1="480" x2="480" y1="585.333" y2="475.333" gradientTransform="matrix(0.69073766,0,0,1.0166644,-61.090922,184.58251)" gradientUnits="userSpaceOnUse" xlink:href="#linearGradient12191"/><linearGradient id="linearGradient13549" x1="480" x2="480" y1="585.333" y2="475.333" gradientTransform="matrix(0.69073766,0,0,1.0166644,-56.924257,185.41232)" gradientUnits="userSpaceOnUse" xlink:href="#linearGradient12191"/><linearGradient id="linearGradient13549-9" x1="480" x2="480" y1="585.333" y2="475.333" gradientTransform="matrix(0.69073766,0,0,1.0166644,223.17303,181.25709)" gradientUnits="userSpaceOnUse" xlink:href="#linearGradient12191"/></defs><metadata id="metadata6096"/><g id="layer1" transform="translate(0,-85.333349)"><rect style="opacity:1;fill:#000;fill-opacity:1;fill-rule:nonzero;stroke:#000;stroke-width:.91783869;stroke-miterlimit:0;stroke-dasharray:none;stroke-opacity:1" id="rect10287" width="1099.577" height="800.072" x=".459" y="85.792"/><rect style="opacity:1;fill:#003838;fill-opacity:1;fill-rule:nonzero;stroke:none;stroke-width:.66162944;stroke-miterlimit:0;stroke-dasharray:none;stroke-opacity:1" id="floorplan.current_media_image" width="400" height="400" x="20" y="275.333"/><g id="g5983" transform="matrix(5.693525,0,0,6.130059,-207.45035,631.4316)"><rect style="fill:#777" id="floorplan.volume_border" width="70" height="7" x="40" y="30"/><rect style="fill:#f8696b" id="floorplan.volume_100" width="70" height="7" x="40" y="30"/><rect style="fill:#f98570" id="floorplan.volume_090" width="63" height="7" x="40" y="30"/><rect style="fill:#fba276" id="floorplan.volume_080" width="56" height="7" x="40" y="30"/><rect style="fill:#fcbf7b" id="floorplan.volume_070" width="49" height="7" x="40" y="30"/><rect style="fill:#fedc81" id="floorplan.volume_060" width="42" height="7" x="40" y="30"/><rect style="fill:#eee683" id="floorplan.volume_050" width="35" height="7" x="40" y="30"/><rect style="fill:#ccdd82" id="floorplan.volume_040" width="28" height="7" x="40" y="30"/><rect style="fill:#a9d27f" id="floorplan.volume_030" width="21" height="7" x="40" y="30"/><rect style="fill:#86c97e" id="floorplan.volume_020" width="14" height="7" x="40" y="30"/><rect style="fill:#63be7b" id="floorplan.volume_010" width="7" height="7" x="40" y="30"/></g><text style="font-style:normal;font-weight:400;font-size:48px;line-height:1.25;font-family:sans-serif;letter-spacing:0;word-spacing:0;fill:#fff;fill-opacity:1;stroke:none" id="floorplan.current_media_title" x="20" y="179.724" xml:space="preserve"><tspan id="tspan11773-8-4" x="20" y="179.724">Title</tspan></text><text style="font-style:normal;font-weight:400;font-size:37.33333206px;line-height:1.25;font-family:sans-serif;letter-spacing:0;word-spacing:0;fill:#fff;fill-opacity:1;stroke:none" id="floorplan.current_media_artist" x="19.526" y="219.841" xml:space="preserve"><tspan id="tspan11773-8-4-4" x="19.526" y="219.841" style="font-size:32px">Artist</tspan></text><text style="font-style:normal;font-weight:400;font-size:24px;line-height:1.25;font-family:sans-serif;letter-spacing:0;word-spacing:0;fill:#fff;fill-opacity:1;stroke:none" id="floorplan.current_media_content_id" x="18.652" y="259.97" xml:space="preserve"><tspan id="tspan11773-8-4-4-8" x="18.652" y="259.97">Content</tspan></text><text style="font-style:normal;font-variant:normal;font-weight:400;font-stretch:normal;font-size:29.33333397px;line-height:1.25;font-family:sans-serif;-inkscape-font-specification:sans-serif;letter-spacing:0;word-spacing:0;fill:#000;fill-opacity:1;stroke:none;stroke-width:.75590551;stroke-miterlimit:4;stroke-dasharray:none;stroke-opacity:1" id="floorplan.current_media_volume_level" x="192.322" y="852.09" xml:space="preserve"><tspan id="tspan11773-8-4-4-8-6" x="192.322" y="852.09">50%</tspan></text><rect style="opacity:1;fill:#003838;fill-opacity:1;fill-rule:nonzero;stroke:none;stroke-width:.34696132;stroke-miterlimit:0;stroke-dasharray:none;stroke-opacity:1" id="floorplan.current_media_image-9" width="400" height="110" x="19.491" y="693.244"/><g id="floorplan.media_play" transform="translate(-40.508719,28.740253)"><g id="g13512"><rect style="opacity:1;fill:url(#linearGradient13518);fill-opacity:1;fill-rule:nonzero;stroke:#000;stroke-width:.82982045;stroke-miterlimit:0;stroke-dasharray:none;stroke-opacity:1" id="rect12116" width="99.17" height="99.17" x="205.83" y="670.333" ry="22.898"/><g id="g12790" transform="matrix(0.17061469,0,0,0.14181755,-65.534978,494.4654)" style="fill:#fff;fill-opacity:1"><path style="fill:#fff;fill-opacity:1;stroke-width:.21747366" id="path12203" d="m 2025.2358,1592.6657 -276.6035,167.5754 q -4.7906,2.9518 -8.2273,0.6812 -3.4367,-2.2707 -3.4367,-8.1744 v -334.2424 q 0,-5.9038 3.4367,-8.1744 3.4367,-2.2707 8.2273,0.6812 l 276.6035,167.5753 q 4.7905,2.9519 4.7905,7.0391 0,4.0872 -4.7905,7.039 z"/></g></g></g><g id="floorplan.media_pause" transform="translate(-145.50872,27.910419)"><rect id="rect12116-5" width="99.17" height="99.17" x="310.83" y="671.163" ry="22.898" style="opacity:1;fill:url(#linearGradient12193-4);fill-opacity:1;fill-rule:nonzero;stroke:#000;stroke-width:.82982045;stroke-miterlimit:0;stroke-dasharray:none;stroke-opacity:1"/><path style="fill:#fff;fill-opacity:1;stroke-width:.03255208" id="path12909" d="m 385,695.33335 v 45.83333 q 0,0.84636 -0.61849,1.46486 -0.61849,0.61848 -1.46484,0.61848 H 366.25 q -0.84636,0 -1.46485,-0.61848 -0.61848,-0.6185 -0.61848,-1.46486 v -45.83333 q 0,-0.84635 0.61848,-1.46485 0.61849,-0.61848 1.46485,-0.61848 h 16.66667 q 0.84635,0 1.46484,0.61848 Q 385,694.487 385,695.33335 Z m -29.16667,0 v 45.83333 q 0,0.84636 -0.61848,1.46486 -0.61849,0.61848 -1.46485,0.61848 h -16.66667 q -0.84635,0 -1.46484,-0.61848 Q 335,742.01304 335,741.16668 v -45.83333 q 0,-0.84635 0.61849,-1.46485 0.61849,-0.61848 1.46484,-0.61848 H 353.75 q 0.84636,0 1.46485,0.61848 0.61848,0.6185 0.61848,1.46485 z"/></g><g id="floorplan.media_previous_track" transform="translate(-149.6789,27.050737)"><rect id="rect12116-5-3" width="99.17" height="99.17" x="209.997" y="671.163" ry="22.898" style="opacity:1;fill:url(#linearGradient13549);fill-opacity:1;fill-rule:nonzero;stroke:#000;stroke-width:.82982045;stroke-miterlimit:0;stroke-dasharray:none;stroke-opacity:1"/><path style="fill:#fff;fill-opacity:1;stroke-width:.03245828" id="path14104" d="m 278.44358,694.95776 q 0.61608,-0.61733 1.03761,-0.42239 0.42153,0.19495 0.42153,1.03972 v 47.82699 q 0,0.84477 -0.42153,1.03972 -0.42153,0.19495 -1.03761,-0.42239 L 255.42153,720.95069 Q 255.16212,720.65827 255,720.33335 v 23.06873 q 0,0.84477 -0.42153,1.03972 -0.42153,0.19495 -1.03762,-0.42239 L 230.5188,720.95069 q -0.61608,-0.61734 -0.61608,-1.4621 0,-0.84478 0.61608,-1.46211 l 23.02205,-23.06872 q 0.61609,-0.61733 1.03762,-0.42239 Q 255,694.73032 255,695.57509 v 23.06872 q 0.16212,-0.3574 0.42153,-0.61733 z"/></g><g id="floorplan.media_next_track" transform="translate(-220,31.689552)"><rect id="rect12116-5-3-3" width="99.17" height="99.17" x="490.094" y="667.008" ry="22.898" style="opacity:1;fill:url(#linearGradient13549-9);fill-opacity:1;fill-rule:nonzero;stroke:#000;stroke-width:.82982045;stroke-miterlimit:0;stroke-dasharray:none;stroke-opacity:1"/><path style="fill:#fff;fill-opacity:1;stroke-width:.03245828" id="path13551" d="m 521.55641,739.01941 q -0.61608,0.61733 -1.03761,0.42238 -0.42153,-0.19495 -0.42153,-1.03972 v -47.82699 q 0,-0.84477 0.42153,-1.03972 0.42153,-0.19494 1.03761,0.42239 l 23.02205,23.06873 q 0.25941,0.25992 0.42154,0.61733 v -23.06873 q 0,-0.84477 0.42153,-1.03972 0.42153,-0.19494 1.03761,0.42239 l 23.02205,23.06873 q 0.61608,0.61733 0.61608,1.4621 0,0.84477 -0.61608,1.4621 l -23.02205,23.06873 q -0.61608,0.61733 -1.03761,0.42238 Q 545,739.24684 545,738.40207 v -23.06872 q -0.16213,0.32491 -0.42154,0.61733 z"/></g><text style="font-style:normal;font-weight:400;font-size:24px;line-height:1.25;font-family:sans-serif;letter-spacing:0;word-spacing:0;fill:#fff;fill-opacity:1;stroke:none" id="floorplan.current_media_player" x="17.656" y="118.568" xml:space="preserve"><tspan id="tspan11773-8-4-4-8-0" x="17.656" y="118.568">Media Player</tspan></text><rect style="opacity:1;fill:#003838;fill-opacity:1;fill-rule:nonzero;stroke:none;stroke-width:2.16943884;stroke-linejoin:miter;stroke-miterlimit:4;stroke-dasharray:none;stroke-opacity:1" id="rect15065" width="640.495" height="50" x="459.505" y="275.333"/><text style="font-style:normal;font-weight:400;font-size:37.33333206px;line-height:1.25;font-family:sans-serif;letter-spacing:0;word-spacing:0;fill:#fff;fill-opacity:1;stroke:none" id="floorplan.media_item_1-0" x="470.859" y="313.714" xml:space="preserve"><tspan id="tspan11773-8-1" x="470.859" y="313.714">Music</tspan></text><rect style="opacity:1;fill:#003838;fill-opacity:1;fill-rule:nonzero;stroke:none;stroke-width:1.72511077;stroke-linejoin:miter;stroke-miterlimit:4;stroke-dasharray:none;stroke-opacity:1" id="floorplan.media_item_4.background" width="640" height="50" x="459.505" y="475.333"/><text style="font-style:normal;font-weight:400;font-size:37.33333206px;line-height:1.25;font-family:sans-serif;letter-spacing:0;word-spacing:0;fill:#fff;fill-opacity:1;stroke:none" id="floorplan.media_item_4" x="471.354" y="514.233" xml:space="preserve"><tspan id="tspan11773-8-54" x="471.354" y="514.233">Media Item 4</tspan></text><rect style="opacity:1;fill:#003838;fill-opacity:1;fill-rule:nonzero;stroke:none;stroke-width:1.72511077;stroke-linejoin:miter;stroke-miterlimit:4;stroke-dasharray:none;stroke-opacity:1" id="floorplan.media_item_1.background" width="640" height="50" x="459.505" y="325.333"/><text style="font-style:normal;font-weight:400;font-size:37.33333206px;line-height:1.25;font-family:sans-serif;letter-spacing:0;word-spacing:0;fill:#fff;fill-opacity:1;stroke:none" id="floorplan.media_item_1" x="470.859" y="364.233" xml:space="preserve"><tspan id="tspan11773-8" x="470.859" y="364.233">Media Item 1</tspan></text><rect style="opacity:1;fill:#003838;fill-opacity:1;fill-rule:nonzero;stroke:none;stroke-width:1.72511077;stroke-linejoin:miter;stroke-miterlimit:4;stroke-dasharray:none;stroke-opacity:1" id="floorplan.media_item_2.background" width="640" height="50" x="459.505" y="375.333"/><rect style="opacity:1;fill:#003838;fill-opacity:1;fill-rule:nonzero;stroke:none;stroke-width:1.72511077;stroke-linejoin:miter;stroke-miterlimit:4;stroke-dasharray:none;stroke-opacity:1" id="floorplan.media_item_3.background" width="640" height="50" x="459.505" y="425.333"/><text style="font-style:normal;font-weight:400;font-size:37.33333206px;line-height:1.25;font-family:sans-serif;letter-spacing:0;word-spacing:0;fill:#fff;fill-opacity:1;stroke:none" id="floorplan.media_item_2" x="470.859" y="414.233" xml:space="preserve"><tspan id="tspan11773-8-9" x="470.859" y="414.233">Media Item 2</tspan></text><text style="font-style:normal;font-weight:400;font-size:37.33333206px;line-height:1.25;font-family:sans-serif;letter-spacing:0;word-spacing:0;fill:#fff;fill-opacity:1;stroke:none" id="floorplan.media_item_3" x="470.859" y="464.233" xml:space="preserve"><tspan id="tspan11773-8-5" x="470.859" y="464.233">Media Item 3</tspan></text></g></svg>